<svg xmlns="http://www.w3.org/2000/svg" viewBox="0 0 1280 960" width="1280" height="960">
    <svg viewBox="0 0 640 480" width="640" height="480">
        <g fill-rule="evenodd" stroke-width="1pt">
            <path fill="#fff" d="M0 0h640v480H0z"/>
            <path fill="#00267f" d="M0 0h213.3v480H0z"/>
            <path fill="#f31830" d="M426.7 0H640v480H426.7z"/>
        </g>
    </svg>
    <svg viewBox="0 0 640 480" x="640" width="640" height="480">
        <path fill="#012169" d="M0 0h640v480H0z"/>
        <path fill="#fff" d="m75 0 244 181L562 0h78v62L400 241l240 178v61h-80L320 301 81 480H0v-60l239-178L0 64V0z"/>
        <path fill="#c8102e" d="m424 281 216 159v40L369 281zm-184 20 6 35L54 480H0zM640 0v3L391 191l2-44L590 0zM0 0l239 176h-60L0 42z"/>
        <path fill="#fff" d="M241 0v480h160V0zM0 160v160h640V160z"/>
        <path fill="#c8102e" d="M0 193v96h640v-96zM273 0v480h96V0z"/>
    </svg>
    <svg viewBox="0 0 640 480" y="480" width="640" height="480">
        <defs>
            <clipPath id="a">
                <path fill-opacity=".7" d="M-88 32h640v480H-88z"/>
            </clipPath>
        </defs>
        <g fill-rule="evenodd" stroke-width="1pt" clip-path="url(#a)" transform="translate(88 -32)">
            <path fill="#fff" d="M-128 32h720v480h-720z"/>
            <circle cx="523.1" cy="344.1" r="194.9" fill="#d30000" transform="translate(-168.4 8.6)scale(.76554)"/>
        </g>
    </svg>
</svg>